<svg width="20" height="20" viewBox="0 0 20 20" fill="none" xmlns="http://www.w3.org/2000/svg">
<path opacity="0.4" d="M13.491 1.66669L6.50768 1.66669C3.47435 1.66669 1.66602 3.47502 1.66602 6.50835L1.66602 13.4834C1.66602 16.525 3.47435 18.3334 6.50768 18.3334L13.4827 18.3334C16.516 18.3334 18.3243 16.525 18.3243 13.4917L18.3243 6.50835C18.3327 3.47502 16.5243 1.66669 13.491 1.66669Z" fill="#FAFAFA"/>
<path d="M10.0001 12.425C9.8418 12.425 9.68346 12.3667 9.55846 12.2417L6.6168 9.3C6.37513 9.05833 6.37513 8.65833 6.6168 8.41666C6.85846 8.175 7.25846 8.175 7.50013 8.41666L10.0001 10.9167L12.5001 8.41666C12.7418 8.175 13.1418 8.175 13.3835 8.41666C13.6251 8.65833 13.6251 9.05833 13.3835 9.3L10.4418 12.2417C10.3168 12.3667 10.1585 12.425 10.0001 12.425Z" fill="#FAFAFA"/>
</svg>
