<svg width="24" height="24" viewBox="0 0 24 24" fill="none" xmlns="http://www.w3.org/2000/svg">
<path opacity="0.4" d="M22 16.19L22 7.81C22 4.17 19.83 2 16.19 2L7.82 2C4.17 2 2 4.17 2 7.81L2 16.18C2 19.82 4.17 21.99 7.81 21.99L16.19 21.99C19.83 22 22 19.83 22 16.19Z" fill="#969696"/>
<path d="M9.08969 12C9.08969 11.81 9.15969 11.62 9.30969 11.47L12.8397 7.94003C13.1297 7.65003 13.6097 7.65003 13.8997 7.94003C14.1897 8.23003 14.1897 8.71003 13.8997 9.00003L10.8997 12L13.8997 15C14.1897 15.29 14.1897 15.77 13.8997 16.06C13.6097 16.35 13.1297 16.35 12.8397 16.06L9.30969 12.53C9.15969 12.38 9.08969 12.19 9.08969 12Z" fill="#969696"/>
</svg>
